<?xml version="1.0" encoding="UTF-8" standalone="no"?>
<!-- Svg Vector Icons : http://www.onlinewebfonts.com/icon -->

<svg
   xmlns:dc="http://purl.org/dc/elements/1.1/"
   xmlns:cc="http://creativecommons.org/ns#"
   xmlns:rdf="http://www.w3.org/1999/02/22-rdf-syntax-ns#"
   xmlns:svg="http://www.w3.org/2000/svg"
   xmlns="http://www.w3.org/2000/svg"
   xmlns:sodipodi="http://sodipodi.sourceforge.net/DTD/sodipodi-0.dtd"
   xmlns:inkscape="http://www.inkscape.org/namespaces/inkscape"
   version="1.1"
   x="0px"
   y="0px"
   viewBox="0 0 1000 1000"
   enable-background="new 0 0 1000 1000"
   xml:space="preserve"
   id="svg3450"
   inkscape:version="0.91 r13725"
   sodipodi:docname="gamepad.svg"><defs
     id="defs3524" /><sodipodi:namedview
     pagecolor="#ffffff"
     bordercolor="#666666"
     borderopacity="1"
     objecttolerance="10"
     gridtolerance="10"
     guidetolerance="10"
     inkscape:pageopacity="0"
     inkscape:pageshadow="2"
     inkscape:window-width="1920"
     inkscape:window-height="1029"
     id="namedview3522"
     showgrid="false"
     inkscape:zoom="0.842"
     inkscape:cx="445.36817"
     inkscape:cy="500"
     inkscape:window-x="0"
     inkscape:window-y="25"
     inkscape:window-maximized="1"
     inkscape:current-layer="svg3450" /><metadata
     id="metadata3452"> Svg Vector Icons : http://www.onlinewebfonts.com/icon <rdf:RDF><cc:Work
     rdf:about=""><dc:format>image/svg+xml</dc:format><dc:type
       rdf:resource="http://purl.org/dc/dcmitype/StillImage" /><dc:title></dc:title></cc:Work></rdf:RDF></metadata><g
     id="g3454"
     style="fill:#8176a2;fill-opacity:1"><g
       id="g3456"
       style="fill:#8176a2;fill-opacity:1"><g
         id="g3458"
         style="fill:#8176a2;fill-opacity:1"><path
           d="M815.4,502.8l-4.6-5.9c-7.9-10-19.8-16-32-16c-8,0-15.4,2.5-21.5,7.3l-103,80.1c-15.9,12.5-17.8,36.7-4.3,54l4.6,5.9c7.9,10,19.8,16,32,16c8,0,15.4-2.5,21.5-7.3l103-80.1c7.7-6,12.3-14.9,13.2-25C825.2,521.6,822,511.3,815.4,502.8z M686.9,634.8c-19.3,0-35-15.7-35-35c0-19.3,15.7-35,35-35c19.3,0,35,15.7,35,35C722,619.1,706.3,634.8,686.9,634.8z M778.5,563.6c-19.3,0-35-15.7-35-35c0-19.3,15.7-35,35-35c19.3,0,35,15.7,35,35C813.5,547.9,797.8,563.6,778.5,563.6z"
           id="path3460"
           style="fill:#8176a2;fill-opacity:1" /><circle
           cx="686.9"
           cy="599.8"
           r="24.8"
           id="circle3462"
           style="fill:#8176a2;fill-opacity:1" /><path
           d="M599.7,470.8c1.7,0,3.3-1.4,3.5-3.1l5.4-29.8c0.3-1.7-0.8-3.1-2.5-3.1h-0.2l-0.1,0h-0.2l-0.1,0h-0.1l-0.1,0l-0.2,0l-0.1,0l-0.1,0.1l-0.1,0l-0.1,0.1l-0.1,0.1l-0.1,0.1l-0.1,0.1l-0.1,0.1l-0.1,0.1l-0.1,0.1l-0.1,0.1l-0.1,0.1l-0.1,0.1l-0.1,0.1l0,0.1l-0.1,0.1l0,0.1l-0.1,0.1l-0.1,0.1l0,0.1l0,0.2l0,0.1l0,0.2l0,0.1l0,0.1l-5.3,29.8C597.3,469.4,598,470.8,599.7,470.8z"
           id="path3464"
           style="fill:#8176a2;fill-opacity:1" /><circle
           cx="778.5"
           cy="528.6"
           r="24.8"
           id="circle3466"
           style="fill:#8176a2;fill-opacity:1" /><path
           d="M585.5,434.8h-2.6l-6.7,36h2.6c1.7,0,3.3-1.4,3.6-3.1l5.7-29.8C588.3,436.2,587.2,434.8,585.5,434.8z"
           id="path3468"
           style="fill:#8176a2;fill-opacity:1" /><circle
           cx="778.5"
           cy="671"
           r="24.8"
           id="circle3470"
           style="fill:#8176a2;fill-opacity:1" /><path
           d="M884.4,417.6V412c-35.9-22.6-85.1-25.5-96.1-25.5H681.9c-12.2,0-12.2,6.4-12.2,6.4h-147c19.6-30.2,60.9-47.8,82.1-77.3c21.6-30,24-70.6,15.9-105.3c-5.9-25.6-45.1-14.7-39.2,10.8c20.4,88.3-76.5,104.1-103.8,171.8H330.3c0,0,0-6.4-12.2-6.4H211.6c-11,0-60.2,2.9-96.1,25.5v5.6C52.6,453,10,520.4,10,597.8c0,114.1,92.5,206.6,206.6,206.6c46.9,0,91.9-13.3,124.7-41.9c9.5-8.3,20.7-8.5,20.7-8.5H638c0,0,11.2,0.2,20.7,8.5c32.8,28.6,77.9,41.9,124.7,41.9c114.1,0,206.6-92.5,206.6-206.6C990,520.4,947.4,453,884.4,417.6z M216.6,713.7c-63.9,0-115.9-52-115.9-115.9s52-115.9,115.9-115.9s115.9,52,115.9,115.9S280.5,713.7,216.6,713.7z M552.6,429.6l-0.9,5.6h-6.4l-2.8,14.1h6.4l-0.9,4.7h-6.4l-2.6,15.4h6.4l-0.9,5.6h-12.9l9-45.6L552.6,429.6L552.6,429.6z M523.7,435.2l1.1-5.6h13.5l-0.9,5.6h-3.4l-7.2,39.9h-6.5l7.1-39.9H523.7z M508.3,429.6l3,23.8l4.4-23.8h6.6l-8.7,45.6h-5.7l-2.1-26.4l-5.3,26.4h-6.6l8.7-45.6H508.3z M499.5,429.6l-8.7,45.6h-5.7l8.7-45.6H499.5z M436.9,429.6l-0.9,5.6h-6.4l-2.8,14.1h6.4l-0.9,4.7h-6.4l-2.6,15.4h6.4l-0.9,5.6h-12.9l9-45.6L436.9,429.6L436.9,429.6z M410.1,429.6h7.2c2.5,0,4.1,2,3.6,4.5l-3.1,16.2c-0.4,2.3-2.7,4.2-5.1,4.2h-7.3l-3.9,20.6h-5.7l8.7-45.6H410.1z M389.4,429.6l-7.1,40.2c-0.1,0.6,0.3,1.1,0.9,1.1h4.3c0.6,0,1.2-0.5,1.3-1.1l7.3-40.2h5.4l-7.7,41.3c-0.4,2.3-2.7,4.2-5.1,4.2h-8.6c-2.4,0-4-1.9-3.5-4.2l7.2-41.3H389.4z M359,475.1c-2.4,0-4-1.9-3.5-4.2l2-11.6h6l-1.5,8.3c-0.3,1.7,0.9,3.1,2.6,3.1c1.7,0,2.8-1.4,3.1-3.1c0,0,0.9-5,1.2-6.7c0.2-1.7-7.8-12.9-8.2-15.3c-0.3-0.3-0.5-1.8-0.4-2.9v0v0l0-0.1v-0.1v-0.1l0.1-0.1v-0.1v-0.1l0-0.1v-0.1l0-0.3l0.1-0.3l0-0.3l0-0.4l0.1-0.4l0.1-0.4l0-0.4l0.1-0.4l0.1-0.4l0.1-0.8l0.1-0.4l0.1-0.4l0.1-0.4l0-0.4l0.1-0.3l0-0.3l0.1-0.3l0-0.3l0-0.1l0-0.1V435l0.1-0.1v-0.1l0-0.1v-0.1l0-0.1v0v-0.1l0,0v0v0v0c0.4-2.5,2.8-4.5,5.3-4.5h8.9c2.5,0,4.1,2,3.6,4.5l-2.1,11.3h-6.1l1.3-7.5c0.3-1.7-0.4-3.1-2.1-3.1c-1.7,0-3.3,1.4-3.6,3.1c0,0-1,4.7-0.9,5.4c0,0.7,0.3,1.9,0.6,2.1c0.7,0.4,7.9,12.3,7.9,13.1c0,0,0.2,0.1,0.2,0.9c0,0.8-2.2,11.6-2.2,11.6c-0.4,2.3-2.7,4.2-5.1,4.2L359,475.1L359,475.1L359,475.1z M442.6,622.9l-47.2,36.9c-2.6,2-5.8,3.1-9,3.1c-4.5,0-8.7-2-11.6-5.6l-3.1-4c-5-6.4-3.8-15.6,2.5-20.6l47.2-36.9c6.2-4.8,15.8-3.6,20.6,2.5l3.1,4C450.1,608.7,449,618,442.6,622.9z M453.7,450.3c-0.3,1.7-3.4,2.8-5.1,3.4h0.4c0,0,0.9,0.3,1.7,0.9c0.4,0.3,0.8,1,1,1.3c0.3,0.5,0.3,1.4,0.3,1.7c0,0.3-3.2,17.6-3.2,17.6H443c0,0,3.1-15.9,3.1-16.5c0.1-0.7,0-1.5-0.1-2.2c-0.1-0.5-0.1-1.4-0.7-1.9h-4.1l-3.9,20.6h-5.7l8.6-45.6h13c2.5,0,4.1,2,3.6,4.5L453.7,450.3z M462.3,475.1l8.7-45.6h5.7l3,23.8l4.5-23.8h6.6l-8.7,45.6h-5.7l-2.1-26.4l-5.3,26.4H462.3L462.3,475.1z M546.8,622.9l-47.2,36.9c-2.6,2-5.8,3.1-9,3.1c-4.5,0-8.7-2-11.6-5.6l-3.1-4c-5-6.4-3.8-15.6,2.5-20.6l47.2-36.9c6.2-4.8,15.8-3.6,20.6,2.5l3.1,4C554.3,608.7,553.2,618,546.8,622.9z M560.5,475.1l-2.1-26.4l-5.3,26.4h-6.6l8.7-45.6h5.8l3,23.8l4.4-23.8h6.6l-8.7,45.6H560.5L560.5,475.1z M582.4,475.1h-13.1l8.7-45.6h12.9c2.5,0,4.1,2,3.6,4.5l-7,36.8C587,473.3,584.7,475.1,582.4,475.1z M597.3,434.1c0.4-2.5,2.8-4.5,5.2-4.5h9.8c2.5,0,4.1,2,3.6,4.5l-6.9,36.8c-0.4,2.3-2.7,4.2-5.1,4.2h-9.5c-2.4,0-3.9-1.9-3.5-4.2L597.3,434.1z M778.5,785.3c-103.2,0-187.2-84-187.2-187.2c0-103.2,84-187.2,187.2-187.2c103.2,0,187.2,84,187.2,187.2C965.6,701.4,881.7,785.3,778.5,785.3z"
           id="path3472"
           style="fill:#8176a2;fill-opacity:1" /><path
           d="M778.5,421.2c-97.6,0-177,79.4-177,177c0,97.6,79.4,177,177,177c97.6,0,177-79.4,177-177S876.1,421.2,778.5,421.2z M686.6,654.5c-15.2,0-30.2-7.5-40-19.9l-4.6-5.9c-17-21.7-14.3-52.4,6-68.3l103-80.1c7.9-6.2,17.5-9.5,27.8-9.5c15.2,0,30.2,7.5,40,19.9l4.6,5.9c8.2,10.5,12.1,23.3,11,36.1c-1.1,13-7.2,24.4-17.1,32.2l-103,80.1C706.5,651.2,696.9,654.5,686.6,654.5z M911.3,561.4l4.6,5.9c17,21.7,14.3,52.4-6,68.3l-103,80.1c-7.9,6.2-17.5,9.5-27.8,9.5c-15.2,0-30.2-7.5-40-19.9l-4.6-5.9c-17-21.7-14.3-52.4,6-68.3l103-80.1c7.9-6.2,17.5-9.5,27.8-9.5C886.5,541.4,901.5,548.9,911.3,561.4z"
           id="path3474"
           style="fill:#8176a2;fill-opacity:1" /><circle
           cx="870"
           cy="599.8"
           r="24.9"
           id="circle3476"
           style="fill:#8176a2;fill-opacity:1" /><path
           d="M849.8,558.9l-103,80.1c-15.9,12.5-17.8,36.7-4.3,54l4.6,5.9c7.9,10,19.8,16.1,32,16.1c8,0,15.4-2.5,21.5-7.3l103-80.1c15.9-12.5,17.8-36.7,4.3-54l-4.6-5.9c-7.9-10-19.8-16-32-16C863.3,551.6,855.9,554.2,849.8,558.9z M778.5,706c-19.3,0-35-15.7-35-35c0-19.3,15.7-35,35-35c19.3,0,35,15.7,35,35C813.5,690.3,797.8,706,778.5,706z M905,599.8c0,19.3-15.7,35-35,35c-19.3,0-35-15.7-35-35c0-19.3,15.7-35,35-35C889.3,564.8,905,580.5,905,599.8z"
           id="path3478"
           style="fill:#8176a2;fill-opacity:1" /><path
           d="M216.6,492.1c-58.3,0-105.7,47.4-105.7,105.7c0,58.3,47.4,105.7,105.7,105.7s105.7-47.4,105.7-105.7C322.3,539.5,274.9,492.1,216.6,492.1z M301.5,574.8v46c0,5.2-4.2,9.4-9.4,9.4H249v43.1c0,5.2-4.2,9.4-9.4,9.4h-46c-5.2,0-9.4-4.2-9.4-9.4v-43.1H141c-5.2,0-9.4-4.2-9.4-9.4v-46c0-5.2,4.2-9.4,9.4-9.4h43.1v-43.1c0-5.2,4.2-9.4,9.4-9.4h46c5.2,0,9.4,4.2,9.4,9.4v43.1h43.1C297.3,565.3,301.5,569.6,301.5,574.8z"
           id="path3480"
           style="fill:#8176a2;fill-opacity:1" /><path
           d="M434,604.6c-0.9-1.1-2.1-1.7-3.5-1.7c-0.7,0-1.8,0.2-2.8,1l-47.2,36.9c-1.9,1.5-2.3,4.4-0.8,6.3l3.1,4c1.3,1.7,3.3,3.1,6.3,0.8l47.2-36.9c1.9-1.5,2.3-4.4,0.8-6.3L434,604.6z"
           id="path3482"
           style="fill:#8176a2;fill-opacity:1" /><path
           d="M448.4,435h-2.6h0h-0.1h0h0v0h0h0h0l-0.1,0h0l0,0h0l0,0l0,0h0l-0.1,0l0,0l-0.1,0l-2.6,13.8c0,0.1,0,0.2,0,0.3c0,0.5,0.4,0.8,0.9,0.8h2.5c0.6,0,2-1.4,2.2-2l2.4-11.2C450.3,436.4,449,435,448.4,435z"
           id="path3484"
           style="fill:#8176a2;fill-opacity:1" /><path
           d="M538.2,604.6c-0.9-1.1-2.1-1.7-3.5-1.7c-0.7,0-1.8,0.2-2.8,1l-47.2,36.9c-1.9,1.5-2.3,4.4-0.8,6.3l3.1,4c1.3,1.7,3.3,3.1,6.3,0.8l47.2-36.9c1.9-1.5,2.3-4.4,0.8-6.3L538.2,604.6z"
           id="path3486"
           style="fill:#8176a2;fill-opacity:1" /><path
           d="M406.4,449.5L406.4,449.5L406.4,449.5l0,0.1v0l0,0l0,0v0l0,0l0,0v0h0l0,0l0.1,0h0l0,0h0h0.1v0h0h0h0h0l0,0h0h0h3.4c0.6,0,1.4-1.3,1.5-1.9l2.4-11.3c0.1-0.6-1.2-2-1.8-2h-2.8c-0.3,0-0.6,0.2-0.9,0.4l-2.7,13.8c0,0.1,0,0.2,0,0.3v0l0,0L406.4,449.5L406.4,449.5L406.4,449.5z"
           id="path3488"
           style="fill:#8176a2;fill-opacity:1" /><polygon
           points="238.8,523 194.3,523 194.3,575.5 141.8,575.5 141.8,620 194.3,620 194.3,672.5 238.8,672.5 238.8,620 291.3,620 291.3,575.5 238.8,575.5 "
           id="polygon3490"
           style="fill:#8176a2;fill-opacity:1" /></g></g><g
       id="g3492"
       style="fill:#8176a2;fill-opacity:1" /><g
       id="g3494"
       style="fill:#8176a2;fill-opacity:1" /><g
       id="g3496"
       style="fill:#8176a2;fill-opacity:1" /><g
       id="g3498"
       style="fill:#8176a2;fill-opacity:1" /><g
       id="g3500"
       style="fill:#8176a2;fill-opacity:1" /><g
       id="g3502"
       style="fill:#8176a2;fill-opacity:1" /><g
       id="g3504"
       style="fill:#8176a2;fill-opacity:1" /><g
       id="g3506"
       style="fill:#8176a2;fill-opacity:1" /><g
       id="g3508"
       style="fill:#8176a2;fill-opacity:1" /><g
       id="g3510"
       style="fill:#8176a2;fill-opacity:1" /><g
       id="g3512"
       style="fill:#8176a2;fill-opacity:1" /><g
       id="g3514"
       style="fill:#8176a2;fill-opacity:1" /><g
       id="g3516"
       style="fill:#8176a2;fill-opacity:1" /><g
       id="g3518"
       style="fill:#8176a2;fill-opacity:1" /><g
       id="g3520"
       style="fill:#8176a2;fill-opacity:1" /></g><rect
     style="fill:#8176a2;fill-opacity:1"
     id="rect4351"
     width="280.28503"
     height="64.133018"
     x="342.04276"
     y="419.2399" /></svg>